<svg style="display: none;" xmlns="http://www.w3.org/2000/svg">
      <symbol viewBox="0 0 220 220" id="play1">
        <path d="M110 8.89168C130.003 8.88778 149.558 14.816 166.191 25.9266C182.825 37.0372 195.79 52.831 203.446 71.3106C211.103 89.7901 213.107 110.125 209.206 129.744C205.304 149.363 195.672 167.384 181.528 181.528C167.384 195.672 149.363 205.304 129.744 209.206C110.125 213.107 89.7901 211.103 71.3106 203.446C52.8311 195.79 37.0372 182.825 25.9266 166.191C14.816 149.558 8.88776 130.003 8.89167 110C8.92826 83.1956 19.5925 57.4996 38.546 38.546C57.4996 19.5925 83.1956 8.92828 110 8.89168ZM110 0C88.2441 0 66.9767 6.45139 48.8873 18.5383C30.7979 30.6253 16.6989 47.805 8.37324 67.9048C0.0476007 88.0047 -2.13077 110.122 2.1136 131.46C6.35798 152.798 16.8345 172.398 32.2183 187.782C47.602 203.166 67.2022 213.642 88.5401 217.886C109.878 222.131 131.995 219.952 152.095 211.627C172.195 203.301 189.375 189.202 201.462 171.113C213.549 153.023 220 131.756 220 110C220 80.8262 208.411 52.8473 187.782 32.2183C167.153 11.5893 139.174 0 110 0Z" />
        <path d="M167.954 110L76.5278 49.9119C76.6463 140.498 76.5278 96.0498 76.5278 170.088L167.954 110Z" />
      </symbol>
      <symbol viewBox="0 0 27 30" id="prev">
          <path d="M3.79999 14.75L26.14 29.49C26.14 7.26 26.14 18.17 26.14 0L3.79999 14.75Z"/>
          <path d="M0 29.49H4.19V0H0V29.49Z"/>
      </symbol>
      <symbol viewBox="0 0 27 30" id="play2">
        <path d="M22.35 14.75L0 0C0 22.23 0 11.32 0 29.49L22.35 14.75Z" />
      </symbol>
      <symbol viewBox="0 0 298.667 298.667" id="pause">
        <rect x="192" y="0" width="85.333" height="298.667"/>
        <rect x="21.333" y="0" width="85.333" height="298.667"/>
      </symbol>
      <symbol viewBox="0 0 27 30" id="next">
        <path d="M22.35 14.75L0 0C0 22.23 0 11.32 0 29.49L22.35 14.75Z"/>
        <path d="M26.15 0H21.96V29.49H26.15V0Z"/>
      </symbol>
      <symbol viewBox="0 0 36 30" id="volumeon">
        <path d="M18.3326 0C17.8816 0 17.4905 0.156374 17.1604 0.469123L8.48928 8.68426H1.66737C1.21531 8.68426 0.825273 8.84064 0.495164 9.15339C0.165055 9.46614 0 9.83665 0 10.2639V19.7361C0 20.1633 0.165055 20.5339 0.495164 20.8466C0.825273 21.1594 1.21636 21.3157 1.66737 21.3157H8.48928L17.1604 29.5309C17.4905 29.8436 17.8806 30 18.3326 30C18.7847 30 19.1747 29.8436 19.5048 29.5309C19.8349 29.2181 20 28.8486 20 28.4203V1.57968C20 1.15239 19.8349 0.781873 19.5059 0.469123C19.1768 0.156374 18.7857 0 18.3337 0H18.3326Z" fill="#B3B3B3"/>
        <path d="M28.0399 18.515C28.7419 17.434 29.0929 16.266 29.0929 15.01C29.0929 13.754 28.7419 12.582 28.0399 11.492C27.3379 10.402 26.4099 9.63396 25.2529 9.18796C25.0879 9.10596 24.8809 9.06396 24.6339 9.06396C24.2049 9.06396 23.8329 9.21697 23.5189 9.52197C23.2049 9.82897 23.0479 10.203 23.0479 10.649C23.0479 10.996 23.1469 11.289 23.3459 11.528C23.5449 11.767 23.7829 11.974 24.0639 12.147C24.3439 12.32 24.6249 12.51 24.9059 12.717C25.1869 12.924 25.4259 13.216 25.6239 13.596C25.8219 13.976 25.9209 14.447 25.9209 15.008C25.9209 15.569 25.8219 16.04 25.6239 16.42C25.4259 16.8 25.1869 17.093 24.9059 17.299C24.6249 17.505 24.3439 17.696 24.0639 17.869C23.7829 18.042 23.5439 18.249 23.3459 18.488C23.1479 18.727 23.0479 19.021 23.0479 19.367C23.0479 19.813 23.2059 20.188 23.5189 20.494C23.8329 20.798 24.2039 20.953 24.6339 20.953C24.8809 20.953 25.0879 20.912 25.2529 20.829C26.4089 20.366 27.3379 19.594 28.0399 18.512V18.515Z"/>
        <path d="M33.8744 22.1208C35.2915 19.9463 36 17.5714 36 14.999C36 12.4276 35.2915 10.0547 33.8744 7.87713C32.4574 5.70262 30.5822 4.11727 28.2497 3.12618C28.0337 3.04274 27.8167 3 27.5997 3C27.1667 3 26.7913 3.15976 26.4744 3.47927C26.1574 3.79878 26 4.17629 26 4.61384C26 5.26914 26.325 5.76469 26.975 6.1015C27.9075 6.58891 28.5414 6.95828 28.8744 7.21063C30.1078 8.11829 31.0707 9.25592 31.762 10.6255C32.4534 11.9952 32.7996 13.4523 32.7996 15C32.7996 16.5457 32.4534 18.0038 31.762 19.3745C31.0707 20.7441 30.1078 21.8817 28.8744 22.7894C28.5414 23.0417 27.9075 23.4111 26.975 23.8985C26.325 24.2353 26 24.7298 26 25.3862C26 25.8227 26.1585 26.2012 26.4744 26.5207C26.7903 26.8402 27.1738 27 27.6239 27C27.8238 27 28.0327 26.9573 28.2487 26.8738C30.5811 25.8817 32.4574 24.2984 33.8734 22.1219L33.8744 22.1208Z" fill="#B3B3B3"/>
      </symbol>
      <symbol viewBox="0 0 36 30" id="volumeoff">
        <path d="M32.2053 15L35.6703 11.535C35.8901 11.3152 36 11.0474 36 10.7337C36 10.4199 35.8901 10.1522 35.6703 9.93234L34.0677 8.32972C33.8478 8.10991 33.5801 8 33.2663 8C32.9526 8 32.6848 8.10991 32.465 8.32972L29 11.7947L25.535 8.32972C25.3152 8.10991 25.0474 8 24.7337 8C24.4199 8 24.1522 8.10991 23.9323 8.32972L22.3297 9.93234C22.1099 10.1522 22 10.4199 22 10.7337C22 11.0474 22.1099 11.3152 22.3297 11.535L25.7947 15L22.3297 18.465C22.1099 18.6848 22 18.9526 22 19.2663C22 19.5801 22.1099 19.8478 22.3297 20.0677L23.9323 21.6703C24.1522 21.8901 24.4199 22 24.7337 22C25.0474 22 25.3152 21.8901 25.535 21.6703L29 18.2053L32.465 21.6703C32.6848 21.8901 32.9516 22 33.2663 22C33.5811 22 33.8478 21.8901 34.0677 21.6703L35.6703 20.0677C35.8901 19.8478 36 19.5801 36 19.2663C36 18.9526 35.8901 18.6848 35.6703 18.465L32.2053 15Z" fill="#B3B3B3"/>
        <path d="M18.3326 0C17.8816 0 17.4905 0.156374 17.1604 0.469123L8.48928 8.68426H1.66737C1.21531 8.68426 0.825273 8.84064 0.495164 9.15339C0.165055 9.46614 0 9.83665 0 10.2639V19.7361C0 20.1633 0.165055 20.5339 0.495164 20.8466C0.825273 21.1594 1.21636 21.3157 1.66737 21.3157H8.48928L17.1604 29.5309C17.4905 29.8436 17.8806 30 18.3326 30C18.7847 30 19.1747 29.8436 19.5048 29.5309C19.8349 29.2181 20 28.8486 20 28.4203V1.57968C20 1.15239 19.8349 0.781873 19.5059 0.469123C19.1768 0.156374 18.7857 0 18.3337 0H18.3326Z"/>
	    </symbol>
      <symbol viewBox="0 0 36 36" id="fullscreen">
        <path d="M31.48 31.6299H23.05V35.8599H35.7001V23.1499H31.48V31.6299Z"/>
        <path d="M4.22 23.1499H0V35.8599H12.65V31.6299H4.22V23.1499Z"/>
        <path d="M0 12.71H4.22V4.24H12.65V0H0V12.71Z"/>
        <path d="M23.05 0V4.24H31.48V12.71H35.7001V0H23.05Z"/>
      </symbol>
      <symbol viewBox="0 0 49 49" id="circle" >
        <g filter="url(#filter0_d)">
          <rect x="0.5" y="0.5" width="47" height="47" rx="23.5" />
          </g>
          <defs>
          <filter id="filter0_d" x="0" y="0" width="48" height="48" filterUnits="userSpaceOnUse" color-interpolation-filters="sRGB">
          <feFlood flood-opacity="0" result="BackgroundImageFix"/>
          <feColorMatrix in="SourceAlpha" type="matrix" values="0 0 0 0 0 0 0 0 0 0 0 0 0 0 0 0 0 0 127 0" result="hardAlpha"/>
          <feOffset/>
          <feColorMatrix type="matrix" values="0 0 0 0 0.4 0 0 0 0 0.4 0 0 0 0 0.4 0 0 0 1 0"/>
          <feBlend mode="normal" in2="BackgroundImageFix" result="effect1_dropShadow"/>
          <feBlend mode="normal" in="SourceGraphic" in2="effect1_dropShadow" result="shape"/>
          </filter>
          </defs> 
      </symbol>
      <symbol viewBox="0 0 24 24" id="facebook">
        <path d="M9.78 22L9.75 13.25H6V9.5H9.75V7C9.75 3.63 11.84 2 14.85 2C16.29 2 17.53 2.1 17.89 2.15V5.68H15.8C14.17 5.68 13.85 6.46 13.85 7.6V9.5H18.5L17.25 13.25H13.85V22H9.78Z"/>
      </symbol>
      <symbol viewBox="0 0 24 24" id="instagram">
        <path d="M13.02 2C14.82 2 15.2 2.02 16.12 2.06C17.18 2.11 17.91 2.28 18.54 2.53C19.2 2.78 19.76 3.13 20.31 3.68C20.87 4.23 21.21 4.79 21.47 5.45C21.72 6.08 21.88 6.81 21.93 7.88C21.98 8.83 21.99 9.2 21.99 11.2V12.8C21.99 14.8 21.98 15.17 21.93 16.12C21.9143 16.9468 21.7588 17.7651 21.47 18.54C21.21 19.2 20.87 19.76 20.32 20.31C19.76 20.87 19.2 21.21 18.54 21.47C17.91 21.72 17.18 21.88 16.12 21.93C15.17 21.98 14.79 21.99 12.79 21.99H11.2C9.20003 21.99 8.83003 21.98 7.87003 21.93C7.04321 21.9141 6.22502 21.7586 5.45003 21.47C4.78364 21.2195 4.17968 20.8271 3.68003 20.32C3.16784 19.8186 2.77186 19.211 2.52003 18.54C2.23165 17.765 2.07613 16.9468 2.06003 16.12C2.01101 15.0874 1.991 14.0537 2.00003 13.02V10.97C2.00003 9.17 2.02003 8.79 2.06003 7.87C2.11003 6.81 2.28003 6.08 2.52003 5.45C2.78003 4.79 3.12003 4.23 3.68003 3.68C4.17521 3.16743 4.78047 2.77418 5.45003 2.53C6.22448 2.23821 7.04266 2.07931 7.87003 2.06C8.79003 2.02 9.17003 2 10.97 2H13.02ZM13.04 3.8H10.95C9.22003 3.8 8.85003 3.82 7.95003 3.86C6.98003 3.9 6.45003 4.06 6.10003 4.2C5.63003 4.38 5.30003 4.6 4.95003 4.95C4.60003 5.3 4.38003 5.63 4.20003 6.1C4.07003 6.45 3.90003 6.98 3.86003 7.96C3.82003 8.86 3.80003 9.22 3.80003 10.96V13.04C3.80003 14.78 3.82003 15.14 3.86003 16.04C3.90003 17.01 4.06003 17.54 4.20003 17.89C4.38003 18.36 4.60003 18.69 4.95003 19.04C5.30003 19.39 5.63003 19.61 6.10003 19.79C6.45003 19.93 6.98003 20.09 7.96003 20.13C8.93003 20.18 9.28003 20.19 11.44 20.19H12.55C14.72 20.19 15.06 20.18 16.04 20.13C17.01 20.09 17.54 19.93 17.89 19.79C18.36 19.61 18.69 19.39 19.04 19.04C19.39 18.69 19.61 18.36 19.79 17.89C19.93 17.54 20.09 17.01 20.13 16.04C20.18 15.06 20.19 14.72 20.19 12.55V11.45C20.19 9.28 20.18 8.93 20.13 7.95C20.09 6.98 19.93 6.45 19.79 6.1C19.6291 5.66543 19.3728 5.27246 19.04 4.95C18.7178 4.61692 18.3248 4.3606 17.89 4.2C17.2969 3.98317 16.6715 3.86822 16.04 3.86C15.0408 3.81227 14.0404 3.79226 13.04 3.8ZM12 6.86C13.3619 6.86 14.668 7.40101 15.631 8.36401C16.594 9.32701 17.135 10.6331 17.135 11.995C17.135 13.3569 16.594 14.663 15.631 15.626C14.668 16.589 13.3619 17.13 12 17.13C10.6381 17.13 9.33204 16.589 8.36904 15.626C7.40604 14.663 6.86503 13.3569 6.86503 11.995C6.86503 10.6331 7.40604 9.32701 8.36904 8.36401C9.33204 7.40101 10.6381 6.86 12 6.86ZM12 8.66C11.1155 8.66 10.2673 9.01136 9.64183 9.6368C9.0164 10.2622 8.66503 11.1105 8.66503 11.995C8.66503 12.8795 9.0164 13.7278 9.64183 14.3532C10.2673 14.9786 11.1155 15.33 12 15.33C12.8845 15.33 13.7328 14.9786 14.3582 14.3532C14.9837 13.7278 15.335 12.8795 15.335 11.995C15.335 11.1105 14.9837 10.2622 14.3582 9.6368C13.7328 9.01136 12.8845 8.66 12 8.66ZM17.33 5.46C17.6483 5.46 17.9535 5.58643 18.1786 5.81147C18.4036 6.03652 18.53 6.34174 18.53 6.66C18.53 6.97826 18.4036 7.28348 18.1786 7.50853C17.9535 7.73357 17.6483 7.86 17.33 7.86C17.0118 7.86 16.7065 7.73357 16.4815 7.50853C16.2565 7.28348 16.13 6.97826 16.13 6.66C16.13 6.34174 16.2565 6.03652 16.4815 5.81147C16.7065 5.58643 17.0118 5.46 17.33 5.46Z"/>
      </symbol>
      <symbol viewBox="0 0 24 24" id="pinterest">
        <path d="M12 2C9.67546 2.00824 7.42643 2.82602 5.63952 4.31277C3.85262 5.79952 2.63948 7.86234 2.20866 10.1466C1.77785 12.4309 2.15627 14.7939 3.27888 16.8293C4.40149 18.8648 6.19815 20.4456 8.35998 21.3C8.25998 20.51 8.18998 19.3 8.38998 18.43L9.55998 13.46C9.55998 13.46 9.25998 12.86 9.25998 11.98C9.25998 10.59 10.07 9.56 11.08 9.56C11.93 9.56 12.35 10.2 12.35 10.96C12.35 11.82 11.8 13.1 11.51 14.29C11.27 15.29 12.01 16.1 13 16.1C14.78 16.1 16.14 14.23 16.14 11.53C16.14 9.13 14.42 7.47 11.96 7.47C11.3756 7.44433 10.792 7.53734 10.2446 7.74342C9.69709 7.94951 9.19705 8.26438 8.77463 8.66904C8.35221 9.07371 8.01616 9.55977 7.78678 10.0979C7.55739 10.636 7.43942 11.215 7.43998 11.8C7.43998 12.66 7.76998 13.58 8.17998 14.08C8.25998 14.18 8.26998 14.27 8.23998 14.37L7.95998 15.5C7.91998 15.68 7.80998 15.73 7.62998 15.64C6.36998 15.05 5.58998 13.24 5.58998 11.76C5.58998 8.61 7.88998 5.72 12.21 5.72C15.67 5.72 18.38 8.18 18.38 11.49C18.38 14.94 16.2 17.71 13.18 17.71C12.18 17.71 11.22 17.18 10.9 16.56L10.27 18.93C9.97485 19.8577 9.55787 20.7421 9.02998 21.56C10.4038 21.9816 11.8524 22.1021 13.277 21.9133C14.7016 21.7245 16.0687 21.2309 17.2854 20.4661C18.502 19.7014 19.5395 18.6833 20.3272 17.4814C21.115 16.2795 21.6344 14.9219 21.8501 13.5011C22.0658 12.0804 21.9728 10.6298 21.5774 9.24822C21.1819 7.86664 20.4934 6.58652 19.5586 5.49506C18.6238 4.40359 17.4648 3.52642 16.1604 2.9233C14.8561 2.32017 13.437 2.00525 12 2Z"/>
      </symbol>
      <symbol viewBox="0 0 24 24" id="twitter">
        <path d="M22 5.88C21.25 6.25 20.5 6.38 19.62 6.5C20.5 6 21.12 5.25 21.37 4.25C20.5606 4.73131 19.6743 5.06959 18.75 5.25C17.9485 4.46227 16.8737 4.01446 15.75 4C13.62 4 11.75 5.88 11.75 8.13C11.75 8.5 11.75 8.75 11.88 9C10.2422 8.93823 8.63643 8.52707 7.17046 7.79408C5.70448 7.0611 4.41212 6.02321 3.38 4.75C3.00812 5.39563 2.83425 6.13634 2.88 6.88C2.89162 7.55196 3.06825 8.21077 3.39434 8.79842C3.72043 9.38608 4.18597 9.88456 4.75 10.25C4.12 10.25 3.5 10 2.87 9.75C2.87 11.75 4.25 13.38 6.12 13.75C5.75 13.88 5.37 13.88 5 13.88C4.75 13.88 4.5 13.88 4.25 13.75C4.75 15.38 6.25 16.63 8.13 16.63C6.67779 17.7963 4.8622 18.4156 3 18.38H2C3.87496 19.5591 6.03554 20.2056 8.25 20.25C15.75 20.25 19.88 14 19.88 8.62V8.12C20.7387 7.53355 21.4617 6.76969 22 5.88Z"/>
      </symbol>
      <symbol viewBox="0 0 24 24" id="youtube">
        <path d="M10.03 15.38V8.62L15.97 12L10.03 15.38ZM23.23 6.5C23.1026 6.01772 22.8508 5.57733 22.4998 5.22285C22.1488 4.86838 21.711 4.61222 21.23 4.48C19.46 4 12.35 4 12.35 4C12.35 4 5.25 4 3.48 4.48C2.99901 4.61222 2.56115 4.86838 2.21018 5.22285C1.85921 5.57733 1.60743 6.01772 1.48 6.5C1 8.28 1 12 1 12C1 12 1 15.72 1.47 17.5C1.5983 17.9835 1.85159 18.4247 2.20441 18.7793C2.55723 19.1338 2.99717 19.3893 3.48 19.52C5.25 20 12.36 20 12.36 20C12.36 20 19.46 20 21.23 19.52C21.711 19.3878 22.1488 19.1316 22.4998 18.7771C22.8508 18.4227 23.1026 17.9823 23.23 17.5C23.71 15.72 23.71 12 23.71 12C23.71 12 23.71 8.28 23.24 6.5H23.23Z"/>
      </symbol>
      <symbol viewBox="0 0 31 8" id="arrowPrev">
        <path d="M5.7741 8C3.93688 6.31339 2.01219 5.08262 0 4.30769V3.69231C2.01219 2.89459 3.93688 1.66382 5.7741 0H7.30511C6.43024 1.4359 5.58454 2.52991 4.768 3.28205H30.2703V4.71795H4.768C5.58454 5.47009 6.43024 6.5641 7.30511 8H5.7741Z"/>
      </symbol>
      <symbol viewBox="0 0 31 8" id="arrowNext">
        <path d="M25.2259 -4.15048e-07C27.0631 1.68661 28.9878 2.91738 31 3.69231L31 4.30769C28.9878 5.10541 27.0631 6.33618 25.2259 8L23.6949 8C24.5698 6.5641 25.4155 5.47009 26.232 4.71795L0.729731 4.71795L0.729731 3.28205L26.232 3.28205C25.4155 2.52991 24.5698 1.4359 23.6949 -5.25098e-07L25.2259 -4.15048e-07Z"/>
      </symbol>
      <symbol viewBox="0 0 39 700" id="explore-thump">
        <path fill-rule="evenodd" clip-rule="evenodd" d="M19.5 365C27.5081 365 34 358.508 34 350.5C34 342.492 27.5081 336 19.5 336C11.4919 336 5 342.492 5 350.5C5 358.508 11.4919 365 19.5 365ZM19.5 370C30.2696 370 39 361.27 39 350.5C39 339.73 30.2696 331 19.5 331C8.73045 331 0 339.73 0 350.5C0 361.27 8.73045 370 19.5 370Z" />
        <path d="M17 0H22V332H17V0Z" fill="white"/>
        <path d="M17 368H22V700H17V368Z" fill="white"/>
      </symbol>
      <symbol viewBox="0 0 10 12" id="videoSliderNext">
        <path fill-rule="evenodd" clip-rule="evenodd" d="M0.348163 0.219168C0.748196 -0.125842 1.33192 -0.0559202 1.65195 0.375342L5.82586 6.00004L1.65194 11.6247C1.33192 12.056 0.748195 12.1259 0.348162 11.7809C-0.0518709 11.4359 -0.116729 10.8066 0.203297 10.3753L3.45008 6.00004L0.203298 1.62473C-0.116728 1.19347 -0.05187 0.564177 0.348163 0.219168ZM4.5223 0.219168C4.92234 -0.125841 5.50606 -0.0559197 5.82609 0.375342L10 6.00004L5.82609 11.6247C5.50606 12.056 4.92234 12.1259 4.5223 11.7809C4.12227 11.4359 4.05741 10.8066 4.37744 10.3753L7.62422 6.00004L4.37744 1.62473C4.05741 1.19347 4.12227 0.564178 4.5223 0.219168Z"/>      
      </symbol>
      <symbol viewBox="0 0 10 12" id="videoSliderPrev">
        <path fill-rule="evenodd" clip-rule="evenodd" d="M5.4777 0.219168C5.87773 0.564178 5.94259 1.19347 5.62256 1.62473L2.37578 6.00004L5.62256 10.3753C5.94259 10.8066 5.87773 11.4359 5.4777 11.7809C5.07766 12.1259 4.49394 12.056 4.17391 11.6247L0 6.00004L4.17391 0.375342C4.49394 -0.0559202 5.07766 -0.125842 5.4777 0.219168ZM9.65184 0.219168C10.0519 0.564178 10.1167 1.19347 9.7967 1.62473L6.54992 6.00004L9.7967 10.3753C10.1167 10.8066 10.0519 11.4359 9.65184 11.7809C9.2518 12.1259 8.66808 12.056 8.34805 11.6247L4.17414 6.00004L8.34805 0.375342C8.66808 -0.0559202 9.2518 -0.125842 9.65184 0.219168Z"/>
      </symbol>
      <symbol viewBox="0 0 7 4" id="ticketsFormArrowUp">
        <path d="M3.00182 4.00049L6 0.000488281H0L3.00182 4.00049Z"/>
      </symbol>
      <symbol viewBox="0 0 7 4" id="ticketsFormArrowDown">
          <path d="M3.00343 0L0.00390625 4H6.00391L3.00343 0Z"/>
      </symbol>
    </svg>